<svg width="14" height="13" viewBox="0 0 14 13" fill="none" xmlns="http://www.w3.org/2000/svg">
<path d="M8.88537 12.5228C8.78443 12.4891 8.68862 12.4416 8.60067 12.3817C7.56896 11.4174 6.37259 10.6853 5.20039 9.91418C4.49488 9.45382 3.80439 8.97601 3.12057 8.48311C2.14533 7.78103 1.39551 6.81027 0.962601 5.68927C0.470083 4.4327 0.635176 3.20544 1.3098 2.05762C1.49673 1.76277 1.74692 1.51321 2.04224 1.32703C2.6316 0.93495 3.31878 0.715319 4.02629 0.692898C4.83321 0.668802 5.56521 0.831308 6.0767 1.53021C6.15949 1.64354 6.25457 1.74734 6.36022 1.83971C6.75795 2.18538 7.22693 2.17422 7.54527 1.74845C8.11461 0.983426 8.87311 0.515083 9.75136 0.209323C10.6112 -0.0895459 11.4189 0.00818181 12.1513 0.534422C12.5308 0.787067 12.8699 1.0957 13.1571 1.44983C14.0669 2.67272 14.311 3.88737 13.3986 5.24497C12.8122 6.11568 12.1849 6.96435 11.5171 7.77342C10.4096 9.11498 9.50637 10.5531 9.04956 12.2506C9.00735 12.3483 8.95213 12.4399 8.88537 12.5228Z" fill="#FF0F82"/>
</svg>
